<svg xmlns="http://www.w3.org/2000/svg" viewBox="0 0 24 24" fill="none">
  <!-- Rocket body -->
  <path d="M12 2C9.5 4.5 8 8 8 12h8c0-4-1.5-7.5-4-10z" fill="currentColor" opacity="0.9"/>
  <!-- Rocket fin left -->
  <path d="M8 12c-1.5 0-3 1-3 3 1 0 2.5-.5 3-1.5V12z" fill="currentColor" opacity="0.7"/>
  <!-- Rocket fin right -->
  <path d="M16 12c1.5 0 3 1 3 3-1 0-2.5-.5-3-1.5V12z" fill="currentColor" opacity="0.7"/>
  <!-- Rocket nozzle -->
  <path d="M9.5 12h5v3l-2.5 2-2.5-2V12z" fill="currentColor"/>
  <!-- Exhaust flame -->
  <path d="M11 15.5c0 1.5-.5 3-1 4 .5-1 1.5-1.5 2-1.5s1.5.5 2 1.5c-.5-1-1-2.5-1-4" fill="currentColor" opacity="0.5"/>
  <!-- Window -->
  <circle cx="12" cy="8.5" r="1.5" fill="white" opacity="0.85"/>
</svg>
